HIERARCHY
ROOT reference
{
  OFFSET 0 0 0
  CHANNELS 6 Xposition Yposition Zposition Zrotation Xrotation Yrotation
  JOINT Hips
  {
    OFFSET 340.57 87.5694 214.797
    CHANNELS 3 Zrotation Xrotation Yrotation
    JOINT RightUpLeg
    {
      OFFSET -9.35418 -1.55218 -0.019184
      CHANNELS 3 Zrotation Xrotation Yrotation
      JOINT RightLeg
      {
        OFFSET -0.0482219 -41.8948 0.0725956
        CHANNELS 3 Zrotation Xrotation Yrotation
        JOINT RightFoot
        {
          OFFSET -1.00159 -42.3965 -1.97064
          CHANNELS 3 Zrotation Xrotation Yrotation
          End Site
          {
            OFFSET 0 -7.69 17.5
          }
        }
      }
    }
    JOINT LeftUpLeg
    {
      OFFSET 9.33628 -1.64535 -0.0795185
      CHANNELS 3 Zrotation Xrotation Yrotation
      JOINT LeftLeg
      {
        OFFSET 0.124871 -41.8725 -0.08325
        CHANNELS 3 Zrotation Xrotation Yrotation
        JOINT LeftFoot
        {
          OFFSET 0.728222 -40.8097 2.1196
          CHANNELS 3 Zrotation Xrotation Yrotation
          End Site
          {
            OFFSET 0 -7.69 17.5
          }
        }
      }
    }
    JOINT Spine
    {
      OFFSET -0.0135102 14.2943 0.0647361
      CHANNELS 3 Zrotation Xrotation Yrotation
      JOINT Spine1
      {
        OFFSET 0.0181502 9.72385 0.0148045
        CHANNELS 3 Zrotation Xrotation Yrotation
        JOINT Spine2
        {
          OFFSET 0.0557859 10.1166 -0.00979693
          CHANNELS 3 Zrotation Xrotation Yrotation
          JOINT Spine3
          {
            OFFSET 0.0359868 9.71757 0.00306838
            CHANNELS 3 Zrotation Xrotation Yrotation
            JOINT Neck
            {
              OFFSET 0.139197 10.3803 0.0501204
              CHANNELS 3 Zrotation Xrotation Yrotation
              JOINT Head
              {
                OFFSET 0.148012 9.47645 -0.000545472
                CHANNELS 3 Zrotation Xrotation Yrotation
                End Site
                {
                  OFFSET 0 15.95 0
                }
              }
            }
            JOINT RightShoulder
            {
              OFFSET -3.16276 6.92807 0.0312834
              CHANNELS 3 Zrotation Xrotation Yrotation
              JOINT RightArm
              {
                OFFSET -12.7681 0.0492996 0.0890957
                CHANNELS 3 Zrotation Xrotation Yrotation
                JOINT RightForeArm
                {
                  OFFSET -26.4761 -0.090776 0.147076
                  CHANNELS 3 Zrotation Xrotation Yrotation
                  JOINT RightHand
                  {
                    OFFSET -25.9655 0.0607057 -0.248467
                    CHANNELS 3 Zrotation Xrotation Yrotation
                    JOINT RightHandThumb1
                    {
                      OFFSET -2.48905 0.190105 3.12053
                      CHANNELS 3 Zrotation Xrotation Yrotation
                      JOINT RightHandThumb2
                      {
                        OFFSET -3.68274 0 0
                        CHANNELS 3 Zrotation Xrotation Yrotation
                        JOINT RightHandThumb3
                        {
                          OFFSET -2.55832 0 0
                          CHANNELS 3 Zrotation Xrotation Yrotation
                          End Site
                          {
                            OFFSET -2.194 0 0
                          }
                        }
                      }
                    }
                    JOINT RightInHandIndex
                    {
                      OFFSET -3.22368 0.508421 1.97842
                      CHANNELS 3 Zrotation Xrotation Yrotation
                      JOINT RightHandIndex1
                      {
                        OFFSET -5.21684 -0.091368 0.999158
                        CHANNELS 3 Zrotation Xrotation Yrotation
                        JOINT RightHandIndex2
                        {
                          OFFSET -3.61937 0 0
                          CHANNELS 3 Zrotation Xrotation Yrotation
                          JOINT RightHandIndex3
                          {
                            OFFSET -2.0521 0 0
                            CHANNELS 3 Zrotation Xrotation Yrotation
                            End Site
                            {
                              OFFSET -1.805 0 0
                            }
                          }
                        }
                      }
                    }
                    JOINT RightInHandMiddle
                    {
                      OFFSET -3.38211 0.517263 0.756737
                      CHANNELS 3 Zrotation Xrotation Yrotation
                      JOINT RightHandMiddle1
                      {
                        OFFSET -5.17411 -0.084 0.313895
                        CHANNELS 3 Zrotation Xrotation Yrotation
                        JOINT RightHandMiddle2
                        {
                          OFFSET -3.94947 0 0
                          CHANNELS 3 Zrotation Xrotation Yrotation
                          JOINT RightHandMiddle3
                          {
                            OFFSET -2.47579 0 0
                            CHANNELS 3 Zrotation Xrotation Yrotation
                            End Site
                            {
                              OFFSET -1.975 0 0
                            }
                          }
                        }
                      }
                    }
                    JOINT RightInHandRing
                    {
                      OFFSET -3.36516 0.537895 -0.128947
                      CHANNELS 3 Zrotation Xrotation Yrotation
                      JOINT RightHandRing1
                      {
                        OFFSET -4.63474 -0.022105 -0.478947
                        CHANNELS 3 Zrotation Xrotation Yrotation
                        JOINT RightHandRing2
                        {
                          OFFSET -3.44238 0 0
                          CHANNELS 3 Zrotation Xrotation Yrotation
                          JOINT RightHandRing3
                          {
                            OFFSET -2.3881 0 0
                            CHANNELS 3 Zrotation Xrotation Yrotation
                            End Site
                            {
                              OFFSET -1.857 0 0
                            }
                          }
                        }
                      }
                    }
                    JOINT RightInHandPinky
                    {
                      OFFSET -3.16105 0.469368 -1.20179
                      CHANNELS 3 Zrotation Xrotation Yrotation
                      JOINT RightHandPinky1
                      {
                        OFFSET -4.14105 -0.022105 -1.09053
                        CHANNELS 3 Zrotation Xrotation Yrotation
                        JOINT RightHandPinky2
                        {
                          OFFSET -2.75653 0 0
                          CHANNELS 3 Zrotation Xrotation Yrotation
                          JOINT RightHandPinky3
                          {
                            OFFSET -1.74189 0 0
                            CHANNELS 3 Zrotation Xrotation Yrotation
                            End Site
                            {
                              OFFSET -1.645 0 0
                            }
                          }
                        }
                      }
                    }
                  }
                }
              }
            }
            JOINT LeftShoulder
            {
              OFFSET 3.20588 6.97332 0.0254387
              CHANNELS 3 Zrotation Xrotation Yrotation
              JOINT LeftArm
              {
                OFFSET 12.8648 0.0341024 0.0247643
                CHANNELS 3 Zrotation Xrotation Yrotation
                JOINT LeftForeArm
                {
                  OFFSET 26.5059 -0.0470976 -0.0807017
                  CHANNELS 3 Zrotation Xrotation Yrotation
                  JOINT LeftHand
                  {
                    OFFSET 26.0013 -0.0100885 -0.0649647
                    CHANNELS 3 Zrotation Xrotation Yrotation
                    JOINT LeftHandThumb1
                    {
                      OFFSET 2.48905 0.190105 3.12053
                      CHANNELS 3 Zrotation Xrotation Yrotation
                      JOINT LeftHandThumb2
                      {
                        OFFSET 3.68274 0 0
                        CHANNELS 3 Zrotation Xrotation Yrotation
                        JOINT LeftHandThumb3
                        {
                          OFFSET 2.55832 0 0
                          CHANNELS 3 Zrotation Xrotation Yrotation
                          End Site
                          {
                            OFFSET 2.194 0 0
                          }
                        }
                      }
                    }
                    JOINT LeftInHandIndex
                    {
                      OFFSET 3.22368 0.508421 1.97842
                      CHANNELS 3 Zrotation Xrotation Yrotation
                      JOINT LeftHandIndex1
                      {
                        OFFSET 5.21684 -0.091368 0.999158
                        CHANNELS 3 Zrotation Xrotation Yrotation
                        JOINT LeftHandIndex2
                        {
                          OFFSET 3.61937 0 0
                          CHANNELS 3 Zrotation Xrotation Yrotation
                          JOINT LeftHandIndex3
                          {
                            OFFSET 2.0521 0 0
                            CHANNELS 3 Zrotation Xrotation Yrotation
                            End Site
                            {
                              OFFSET 1.805 0 0
                            }
                          }
                        }
                      }
                    }
                    JOINT LeftInHandMiddle
                    {
                      OFFSET 3.38211 0.517263 0.756737
                      CHANNELS 3 Zrotation Xrotation Yrotation
                      JOINT LeftHandMiddle1
                      {
                        OFFSET 5.17411 -0.084 0.313895
                        CHANNELS 3 Zrotation Xrotation Yrotation
                        JOINT LeftHandMiddle2
                        {
                          OFFSET 3.94947 0 0
                          CHANNELS 3 Zrotation Xrotation Yrotation
                          JOINT LeftHandMiddle3
                          {
                            OFFSET 2.47579 0 0
                            CHANNELS 3 Zrotation Xrotation Yrotation
                            End Site
                            {
                              OFFSET 1.975 0 0
                            }
                          }
                        }
                      }
                    }
                    JOINT LeftInHandRing
                    {
                      OFFSET 3.36516 0.537895 -0.128947
                      CHANNELS 3 Zrotation Xrotation Yrotation
                      JOINT LeftHandRing1
                      {
                        OFFSET 4.63474 -0.022105 -0.478947
                        CHANNELS 3 Zrotation Xrotation Yrotation
                        JOINT LeftHandRing2
                        {
                          OFFSET 3.44238 0 0
                          CHANNELS 3 Zrotation Xrotation Yrotation
                          JOINT LeftHandRing3
                          {
                            OFFSET 2.3881 0 0
                            CHANNELS 3 Zrotation Xrotation Yrotation
                            End Site
                            {
                              OFFSET 1.857 0 0
                            }
                          }
                        }
                      }
                    }
                    JOINT LeftInHandPinky
                    {
                      OFFSET 3.16105 0.469368 -1.20179
                      CHANNELS 3 Zrotation Xrotation Yrotation
                      JOINT LeftHandPinky1
                      {
                        OFFSET 4.14105 -0.022105 -1.09053
                        CHANNELS 3 Zrotation Xrotation Yrotation
                        JOINT LeftHandPinky2
                        {
                          OFFSET 2.75653 0 0
                          CHANNELS 3 Zrotation Xrotation Yrotation
                          JOINT LeftHandPinky3
                          {
                            OFFSET 1.74189 0 0
                            CHANNELS 3 Zrotation Xrotation Yrotation
                            End Site
                            {
                              OFFSET 1.645 0 0
                            }
                          }
                        }
                      }
                    }
                  }
                }
              }
            }
          }
        }
      }
    }
  }
}
MOTION
Frames: 2
Frame Time: 0.00833333
4.500000000000000000e+02 0.000000000000000000e+00 0.000000000000000000e+00 0.000000000000000000e+00 0.000000000000000000e+00 0.000000000000000000e+00 4.114827987619365524e-02 -1.473379085955589807e-01 -4.068972782804058386e-01 5.176823137643982164e-01 -1.980681037037586856e-01 7.277924466276275428e-01 -1.194084325975316302e-02 1.370823726797693043e-01 7.967647932451062120e-02 -3.925056645991757687e-02 -1.706136550900209589e-02 -5.349742087688508230e-02 9.112169755554892780e-02 8.532099414825837502e-02 3.182175876012297566e-01 -1.067040991825644047e-01 1.204354246906706172e-01 9.433346426702871046e-02 -8.595536148675001972e-03 -6.205830779753127024e-02 4.450564756696819696e-02 -1.132849617556871830e-01 -3.922475883716378120e-02 1.721128499908643472e-01 -2.612448256281623207e-02 -8.568302485476433222e-03 4.098699607668985362e-02 -4.337456255158089746e-02 -1.524683728289801324e-02 7.009368373585096734e-02 -8.545570237315655571e-03 5.997774922053340785e-03 9.012160341352694337e-03 -7.721579694926049113e-03 1.009968732461862147e-02 -1.809346261042070816e-02 -1.483243474041220089e-01 5.801324472119484543e-02 1.776281359970540707e-01 2.662194531694326849e-01 -2.291748372609928586e-01 -9.279399256138737284e-01 -1.397029825725880914e-01 9.733882347844746707e-01 1.668572391519139442e-01 -2.030027519251029755e+00 2.358370069330231189e-01 -3.772396746635523268e+00 7.554120610313677098e-01 1.004084540490373378e-01 1.548369880613448046e+00 0.000000000000000000e+00 0.000000000000000000e+00 0.000000000000000000e+00 3.047018554520920259e-15 -4.063205243498467243e-15 0.000000000000000000e+00 1.776357880418303280e-15 -3.210178048342512113e-15 0.000000000000000000e+00 -2.542312997566282796e-15 7.248542481762786301e-17 -3.456249242612260669e-15 0.000000000000000000e+00 0.000000000000000000e+00 0.000000000000000000e+00 0.000000000000000000e+00 2.490418533233890627e-16 -1.670299512723582935e-15 0.000000000000000000e+00 4.047734551257943605e-15 1.133203171035185656e-14 -2.542312997566282796e-15 7.248542481762786301e-17 -3.456249242612260669e-15 0.000000000000000000e+00 -2.238237441308303651e-15 -1.284030625720688499e-15 0.000000000000000000e+00 6.637058397551610147e-15 1.116570176632703883e-14 0.000000000000000000e+00 3.545410262307438767e-15 1.062637032256991308e-14 -2.542312997566282796e-15 7.248542481762786301e-17 -3.456249242612260669e-15 0.000000000000000000e+00 0.000000000000000000e+00 0.000000000000000000e+00 0.000000000000000000e+00 4.020659050319524474e-15 7.770258259652855927e-15 0.000000000000000000e+00 4.866860411415376888e-15 -1.754518621028732022e-15 -2.542312997566282796e-15 7.248542481762786301e-17 -3.456249242612260669e-15 0.000000000000000000e+00 0.000000000000000000e+00 0.000000000000000000e+00 0.000000000000000000e+00 -1.627484749657663657e-15 -2.260672712240499093e-15 0.000000000000000000e+00 -4.099415510015171256e-16 2.453396543803794812e-15 1.339859913984663697e-01 9.589466867857449062e-02 1.834635615118947738e-01 -2.003337064719743210e-01 -2.689591193749037989e-01 2.790919283308171406e-01 -9.821782726151723208e-01 5.138181451306816916e-01 -1.441599092335503762e+00 6.278820208047869444e-01 -2.579053130757581247e+00 5.203897734457220148e-01 0.000000000000000000e+00 0.000000000000000000e+00 0.000000000000000000e+00 -7.059970109201592495e-15 8.596401495156466957e-15 0.000000000000000000e+00 -2.752442562102028888e-17 2.451393654803813759e-15 0.000000000000000000e+00 1.464253456100838283e-15 -1.726346774326521566e-15 1.506545080142115752e-15 0.000000000000000000e+00 0.000000000000000000e+00 0.000000000000000000e+00 0.000000000000000000e+00 6.528183164906234150e-16 -7.793503571436108139e-15 0.000000000000000000e+00 -4.358124443567951900e-16 -4.605466050561414352e-15 1.464253456100838283e-15 -1.726346774326521566e-15 1.506545080142115752e-15 0.000000000000000000e+00 -2.980008280044477945e-15 -8.189487273107135532e-15 0.000000000000000000e+00 -1.978860797653865572e-15 -2.529716568657768790e-15 0.000000000000000000e+00 4.388567391737514178e-16 -2.222940912234125496e-15 1.464253456100838283e-15 -1.726346774326521566e-15 1.506545080142115752e-15 0.000000000000000000e+00 0.000000000000000000e+00 0.000000000000000000e+00 0.000000000000000000e+00 3.823311044700778952e-16 -9.570426635023457771e-15 0.000000000000000000e+00 1.091732019307903262e-15 -2.376130598343044713e-15 1.464253456100838283e-15 -1.726346774326521566e-15 1.506545080142115752e-15 0.000000000000000000e+00 0.000000000000000000e+00 0.000000000000000000e+00 0.000000000000000000e+00 3.384267310411919655e-15 -5.858277062821781437e-15 0.000000000000000000e+00 2.785725481075463965e-15 -1.596150967138985948e-14
4.500000000000000000e+02 0.000000000000000000e+00 0.000000000000000000e+00 0.000000000000000000e+00 0.000000000000000000e+00 0.000000000000000000e+00 1.375849926588073452e-02 -1.158037386142286712e-01 -3.528959206712317664e-01 5.181451334645295059e-01 -1.602415869594574216e-01 6.886301921379403002e-01 -2.521468418238478199e-02 1.230462355018965004e-01 1.960292454980006038e-01 -2.579325607233859050e-02 -2.643194263450258930e-02 -1.795968475558206989e-01 9.141800117250044322e-02 8.604919048252426816e-02 2.128180039338509189e-01 -1.057991110276143842e-01 1.442838647141665986e-01 9.832647642054820336e-02 -1.623345819665991674e-02 -8.600595411554418090e-02 6.303007278246591794e-02 -2.317730775850011804e-02 -3.059646937487683210e-02 1.957299005899942879e-02 -5.919457131822679005e-03 -1.362613944789511228e-02 4.833048888343115593e-03 -1.089886981704318684e-02 -2.424155874822275791e-02 1.421465914336116770e-02 -1.098939519888541064e-02 7.523646018850093514e-03 1.679118207609191227e-02 -1.005068795899213829e-02 9.567028072472930425e-03 2.463372146763883296e-03 -1.836964661764699247e-01 9.565435446024143917e-02 3.083185650700566161e-01 2.131277092080763602e-01 -1.368733344416744879e-01 -8.102997644673884947e-01 -1.590656650580642983e-01 1.043512806735196863e+00 1.750497036567977560e-01 -2.767455548254344144e+00 5.042066143996017935e-01 -4.688871119105390228e+00 1.203484522456506500e+00 -5.516644020498729928e-01 2.247562693046313953e+00 0.000000000000000000e+00 0.000000000000000000e+00 0.000000000000000000e+00 5.871404529196707561e-15 -4.038001994705582296e-15 0.000000000000000000e+00 1.038990683692696850e-14 -4.496410882744042274e-15 0.000000000000000000e+00 -3.316741858023049088e-15 1.672593966482277830e-15 -2.449533774094322105e-15 0.000000000000000000e+00 0.000000000000000000e+00 0.000000000000000000e+00 0.000000000000000000e+00 -8.759168537261805585e-16 -3.293107661034362315e-15 0.000000000000000000e+00 1.644666030819471553e-15 6.125958276940267459e-15 -3.316741858023049088e-15 1.672593966482277830e-15 -2.449533774094322105e-15 0.000000000000000000e+00 8.785650477572897453e-16 -8.868036684063493754e-16 0.000000000000000000e+00 4.232467425808197064e-15 7.350985623242332667e-15 0.000000000000000000e+00 6.104002171900690330e-15 6.043186588973987108e-15 -3.316741858023049088e-15 1.672593966482277830e-15 -2.449533774094322105e-15 0.000000000000000000e+00 0.000000000000000000e+00 0.000000000000000000e+00 0.000000000000000000e+00 1.140765355910779994e-15 9.069235016687053925e-16 0.000000000000000000e+00 4.476011876299524087e-15 3.839817447968344560e-15 -3.316741858023049088e-15 1.672593966482277830e-15 -2.449533774094322105e-15 0.000000000000000000e+00 0.000000000000000000e+00 0.000000000000000000e+00 0.000000000000000000e+00 -1.447360590375332137e-15 -9.780792948554804833e-15 0.000000000000000000e+00 -1.832328863123377751e-15 5.169465690021195067e-15 5.645223901119415105e-02 1.461386016107916186e-01 3.151972787914887886e-01 -3.565130532732813107e-01 -3.688700721065152899e-01 5.411173153863514385e-01 -1.101400515367445321e+00 4.029887523627239121e-01 -1.393685474955532300e+00 5.069525403129596652e-01 -1.722510379283459958e+00 4.565211696035108013e-01 0.000000000000000000e+00 0.000000000000000000e+00 0.000000000000000000e+00 -4.394832483455821354e-15 7.621079272898804796e-15 0.000000000000000000e+00 1.889991744292939486e-15 8.887621564305352318e-16 0.000000000000000000e+00 -7.321712204296157203e-16 1.749902272721631833e-16 1.525189729987456706e-16 0.000000000000000000e+00 0.000000000000000000e+00 0.000000000000000000e+00 0.000000000000000000e+00 2.392861221352039131e-15 -4.568252640290964588e-15 0.000000000000000000e+00 2.061676991683135474e-15 -3.142517686266220810e-15 -7.321712204296157203e-16 1.749902272721631833e-16 1.525189729987456706e-16 0.000000000000000000e+00 -1.848211529733887073e-15 -7.038915825946653166e-15 0.000000000000000000e+00 -1.232392818120888930e-15 -2.240875928885393363e-15 0.000000000000000000e+00 -2.220743052853749008e-15 3.315278871017390271e-15 -7.321712204296157203e-16 1.749902272721631833e-16 1.525189729987456706e-16 0.000000000000000000e+00 0.000000000000000000e+00 0.000000000000000000e+00 0.000000000000000000e+00 -4.390020062818882406e-16 -8.363243810275123027e-15 0.000000000000000000e+00 1.707463963229870101e-16 -1.546531685347089331e-15 -7.321712204296157203e-16 1.749902272721631833e-16 1.525189729987456706e-16 0.000000000000000000e+00 0.000000000000000000e+00 0.000000000000000000e+00 0.000000000000000000e+00 6.132315608945652318e-16 -8.300058850457844248e-15 0.000000000000000000e+00 3.402725360730019003e-15 -8.208860081403840125e-15
